<svg width="32" height="32" viewBox="0 0 32 32" fill="none" xmlns="http://www.w3.org/2000/svg">
<g clip-path="url(#clip0_6640_3114)">
<path d="M18.7265 24.087V18.6088C18.7265 18.3667 18.6308 18.1344 18.4603 17.9632C18.2898 17.792 18.0586 17.6958 17.8175 17.6958H14.1814C13.9403 17.6958 13.709 17.792 13.5386 17.9632C13.3681 18.1344 13.2723 18.3667 13.2723 18.6088V24.087C13.2723 24.3291 13.1765 24.5614 13.0061 24.7326C12.8356 24.9038 12.6044 25 12.3633 25H6.90904C6.66795 25 6.43673 24.9038 6.26625 24.7326C6.09577 24.5614 6 24.3291 6 24.087V13.5347C6.00001 13.4075 6.0265 13.2816 6.07777 13.1653C6.12904 13.0489 6.20395 12.9446 6.29771 12.8591L15.3881 4.23782C15.5555 4.0848 15.7737 4 16 4C16.2263 4 16.4445 4.0848 16.6119 4.23782L25.7023 12.8591C25.796 12.9446 25.871 13.0489 25.9222 13.1653C25.9735 13.2816 26 13.4075 26 13.5347V24.087C26 24.3291 25.9042 24.5614 25.7337 24.7326C25.5633 24.9038 25.3321 25 25.091 25H19.6356C19.3945 25 19.1633 24.9038 18.9928 24.7326C18.8223 24.5614 18.7265 24.3291 18.7265 24.087Z" stroke="#3965AD" stroke-width="2" stroke-linecap="round" stroke-linejoin="round"/>
</g>
<defs>
<clipPath id="clip0_6640_3114">
<rect width="32" height="32" fill="white"/>
</clipPath>
</defs>
</svg>
