<svg width="228" height="27" viewBox="0 0 228 27" fill="none" xmlns="http://www.w3.org/2000/svg">
<path d="M44.8812 11.7625C44.8812 8.39679 45.5465 5.8441 46.877 4.10442C48.2166 2.356 50.3035 1.25012 53.1377 0.78679C54.131 0.62069 55.1289 0.485187 56.1314 0.380282C57.1429 0.266634 58.2 0.139874 59.3027 0L59.7812 3.50121C57.4664 3.75474 55.6985 3.96017 54.4773 4.11753C53.2653 4.27489 52.3722 4.44973 51.7981 4.64206C51.2239 4.82564 50.7501 5.09228 50.3764 5.44196C50.0119 5.79165 49.7294 6.25498 49.5289 6.83196C49.3284 7.40019 49.1963 8.16076 49.1325 9.11365H49.3375C49.8205 8.39679 50.4584 7.84604 51.2513 7.46139C52.0441 7.07674 52.8962 6.88441 53.8075 6.88441C55.6939 6.88441 57.1611 7.43953 58.2091 8.54978C59.2571 9.65129 59.7812 11.2336 59.7812 13.2967C59.7812 15.6746 59.1159 17.5236 57.7854 18.8436C56.464 20.1549 54.6368 20.8106 52.3038 20.8106C49.9709 20.8106 48.1483 20.0107 46.836 18.4109C45.5328 16.8023 44.8812 14.5862 44.8812 11.7625ZM52.5499 17.5716C54.5274 17.5716 55.5162 16.2647 55.5162 13.6508C55.5162 11.1068 54.6231 9.83487 52.837 9.83487C52.3449 9.83487 51.8528 9.94415 51.3606 10.1627C50.8776 10.3813 50.4311 10.6697 50.021 11.0282C49.62 11.3779 49.3239 11.7319 49.1325 12.0903C49.1325 13.865 49.4287 15.2244 50.021 16.1685C50.6134 17.1039 51.4563 17.5716 52.5499 17.5716Z" fill="#F2444E"/>
<path d="M72.9314 20.5483L72.1249 18.5551H72.0155C71.3138 19.4031 70.5893 19.9932 69.842 20.3254C69.1039 20.6489 68.1379 20.8106 66.9441 20.8106C65.4768 20.8106 64.3195 20.4085 63.472 19.6042C62.6336 18.7999 62.2144 17.6547 62.2144 16.1685C62.2144 14.6124 62.7794 13.4672 63.9094 12.7329C65.0485 11.9898 66.7618 11.5789 69.0492 11.5002L71.7011 11.4216V10.779C71.7011 9.29286 70.9083 8.54978 69.3226 8.54978C68.1014 8.54978 66.6661 8.90384 65.0166 9.61195L63.636 6.91064C65.3948 6.02768 67.345 5.58621 69.4866 5.58621C71.5371 5.58621 73.1091 6.01457 74.2026 6.8713C75.2962 7.72802 75.843 9.0306 75.843 10.779V20.5483H72.9314ZM71.7011 13.7557L70.0881 13.8082C68.876 13.8431 67.9738 14.0529 67.3815 14.4376C66.7891 14.8222 66.493 15.408 66.493 16.1948C66.493 17.3225 67.1673 17.8864 68.5161 17.8864C69.4821 17.8864 70.2521 17.6197 70.8262 17.0865C71.4095 16.5532 71.7011 15.8451 71.7011 14.9621V13.7557Z" fill="#F2444E"/>
<path d="M84.3182 5.88781V11.5265H90.1415V5.88781H94.3107V20.5483H90.1415V14.5032H84.3182V20.5483H80.1489V5.88781H84.3182Z" fill="#F2444E"/>
<path d="M108.705 5.88781H113.298L107.242 12.9165L113.831 20.5483H109.101L102.854 13.1132V20.5483H98.685V5.88781H102.854V13.0083L108.705 5.88781Z" fill="#F2444E"/>
<path d="M124.411 20.8106C122.616 20.8106 121.208 20.1855 120.187 18.9354H119.969C120.114 20.1593 120.187 20.8674 120.187 21.0597V27H116.018V5.88781H119.408L119.996 7.78922H120.187C121.162 6.33803 122.607 5.61243 124.521 5.61243C126.325 5.61243 127.738 6.2812 128.758 7.61875C129.779 8.95629 130.289 10.814 130.289 13.1918C130.289 14.7567 130.048 16.1161 129.565 17.27C129.091 18.424 128.412 19.3026 127.528 19.9058C126.644 20.509 125.605 20.8106 124.411 20.8106ZM123.181 8.81205C122.151 8.81205 121.399 9.11802 120.926 9.72997C120.452 10.3332 120.206 11.3341 120.187 12.7329V13.1656C120.187 14.7392 120.429 15.8669 120.912 16.5488C121.404 17.2307 122.179 17.5716 123.236 17.5716C125.104 17.5716 126.038 16.0942 126.038 13.1394C126.038 11.6969 125.806 10.6173 125.341 9.90044C124.885 9.17484 124.165 8.81205 123.181 8.81205Z" fill="#F2444E"/>
<path d="M137.056 13.1918C137.056 14.643 137.302 15.7402 137.794 16.4832C138.295 17.2263 139.106 17.5979 140.227 17.5979C141.339 17.5979 142.136 17.2307 142.619 16.4964C143.111 15.7533 143.357 14.6518 143.357 13.1918C143.357 11.7407 143.111 10.6523 142.619 9.92666C142.127 9.20107 141.321 8.83827 140.2 8.83827C139.088 8.83827 138.286 9.20107 137.794 9.92666C137.302 10.6435 137.056 11.7319 137.056 13.1918ZM147.622 13.1918C147.622 15.5784 146.966 17.4449 145.654 18.7912C144.342 20.1374 142.514 20.8106 140.172 20.8106C138.705 20.8106 137.411 20.5046 136.29 19.8927C135.169 19.272 134.308 18.3847 133.707 17.2307C133.105 16.0767 132.804 14.7305 132.804 13.1918C132.804 10.7965 133.456 8.93443 134.759 7.60563C136.062 6.27683 137.894 5.61243 140.254 5.61243C141.722 5.61243 143.016 5.91841 144.137 6.53035C145.258 7.1423 146.119 8.02088 146.72 9.1661C147.322 10.3113 147.622 11.6532 147.622 13.1918Z" fill="#F2444E"/>
<path d="M163.575 5.88781V8.89072H158.572V20.5483H154.403V8.89072H149.386V5.88781H163.575Z" fill="#F2444E"/>
<path d="M172.501 20.8106C167.744 20.8106 165.366 18.306 165.366 13.2967C165.366 10.8052 166.013 8.90384 167.307 7.59252C168.601 6.27246 170.455 5.61243 172.87 5.61243C174.638 5.61243 176.224 5.94463 177.627 6.60903L176.397 9.70374C175.741 9.45022 175.13 9.24478 174.565 9.08742C174 8.92132 173.435 8.83827 172.87 8.83827C170.701 8.83827 169.617 10.3157 169.617 13.2705C169.617 16.1379 170.701 17.5716 172.87 17.5716C173.672 17.5716 174.415 17.4711 175.098 17.27C175.782 17.0602 176.465 16.7368 177.149 16.2997V19.7222C176.474 20.1331 175.791 20.4172 175.098 20.5746C174.415 20.7319 173.549 20.8106 172.501 20.8106Z" fill="#F2444E"/>
<path d="M193.347 5.88781V8.89072H188.344V20.5483H184.175V8.89072H179.158V5.88781H193.347Z" fill="#F2444E"/>
<path d="M210.311 9.72997C210.311 10.5168 210.052 11.1899 209.532 11.7494C209.022 12.3001 208.266 12.6542 207.263 12.8116V12.9165C208.348 13.0389 209.204 13.3973 209.833 13.9917C210.471 14.5775 210.79 15.3031 210.79 16.1685C210.79 17.5935 210.207 18.6819 209.04 19.4337C207.874 20.1768 206.206 20.5483 204.037 20.5483H196.204V5.88781H204.037C206.133 5.88781 207.701 6.21564 208.739 6.8713C209.787 7.51821 210.311 8.4711 210.311 9.72997ZM206.47 15.9587C206.47 15.3817 206.238 14.9665 205.773 14.713C205.308 14.4507 204.611 14.3196 203.682 14.3196H200.374V17.7814H203.764C204.648 17.7814 205.317 17.6241 205.773 17.3094C206.238 16.9859 206.47 16.5357 206.47 15.9587ZM206.088 10.0447C206.088 9.15299 205.349 8.70714 203.873 8.70714H200.374V11.6051H203.395C204.279 11.6051 204.948 11.4828 205.404 11.238C205.86 10.9932 206.088 10.5954 206.088 10.0447Z" fill="#F2444E"/>
<path d="M217.433 13.1918C217.433 14.643 217.679 15.7402 218.172 16.4832C218.673 17.2263 219.484 17.5979 220.605 17.5979C221.717 17.5979 222.514 17.2307 222.997 16.4964C223.489 15.7533 223.735 14.6518 223.735 13.1918C223.735 11.7407 223.489 10.6523 222.997 9.92666C222.505 9.20107 221.698 8.83827 220.577 8.83827C219.466 8.83827 218.664 9.20107 218.172 9.92666C217.679 10.6435 217.433 11.7319 217.433 13.1918ZM228 13.1918C228 15.5784 227.344 17.4449 226.032 18.7912C224.719 20.1374 222.892 20.8106 220.55 20.8106C219.083 20.8106 217.789 20.5046 216.668 19.8927C215.547 19.272 214.686 18.3847 214.084 17.2307C213.483 16.0767 213.182 14.7305 213.182 13.1918C213.182 10.7965 213.834 8.93443 215.137 7.60563C216.44 6.27683 218.272 5.61243 220.632 5.61243C222.099 5.61243 223.393 5.91841 224.514 6.53035C225.635 7.1423 226.496 8.02088 227.098 9.1661C227.699 10.3113 228 11.6532 228 13.1918Z" fill="#F2444E"/>
<path d="M10.553 5.88781V8.89072H4.16925V20.5483H0V5.88781H10.553Z" fill="#3965AD"/>
<path d="M16.5813 13.1918C16.5813 14.643 16.8274 15.7402 17.3195 16.4832C17.8207 17.2263 18.6317 17.5979 19.7527 17.5979C20.8645 17.5979 21.6619 17.2307 22.1448 16.4964C22.637 15.7533 22.883 14.6518 22.883 13.1918C22.883 11.7407 22.637 10.6523 22.1448 9.92666C21.6527 9.20107 20.8462 8.83827 19.7253 8.83827C18.6135 8.83827 17.8116 9.20107 17.3195 9.92666C16.8274 10.6435 16.5813 11.7319 16.5813 13.1918ZM27.1479 13.1918C27.1479 15.5784 26.4918 17.4449 25.1795 18.7912C23.8672 20.1374 22.04 20.8106 19.698 20.8106C18.2308 20.8106 16.9367 20.5046 15.8158 19.8927C14.6949 19.272 13.8337 18.3847 13.2322 17.2307C12.6308 16.0767 12.33 14.7305 12.33 13.1918C12.33 10.7965 12.9816 8.93443 14.2848 7.60563C15.588 6.27683 17.4197 5.61243 19.78 5.61243C21.2472 5.61243 22.5413 5.91841 23.6622 6.53035C24.7831 7.1423 25.6443 8.02088 26.2457 9.1661C26.8472 10.3113 27.1479 11.6532 27.1479 13.1918Z" fill="#3965AD"/>
<path d="M36.7987 20.8106C32.0417 20.8106 29.6632 18.306 29.6632 13.2967C29.6632 10.8052 30.3102 8.90384 31.6043 7.59252C32.8983 6.27246 34.7528 5.61243 37.1678 5.61243C38.9357 5.61243 40.5214 5.94463 41.9249 6.60903L40.6946 9.70374C40.0384 9.45022 39.4279 9.24478 38.8628 9.08742C38.2978 8.92132 37.7328 8.83827 37.1678 8.83827C34.9989 8.83827 33.9144 10.3157 33.9144 13.2705C33.9144 16.1379 34.9989 17.5716 37.1678 17.5716C37.9698 17.5716 38.7125 17.4711 39.396 17.27C40.0794 17.0602 40.7629 16.7368 41.4464 16.2997V19.7222C40.772 20.1331 40.0886 20.4172 39.396 20.5746C38.7125 20.7319 37.8467 20.8106 36.7987 20.8106Z" fill="#3965AD"/>
</svg>
